C:/Users/tisgot23adioka/OneDrive - Thorengruppen/Skrivbordet/Krita (x64)/bin/ffmpeg.exe -hide_banner -y -y -r 50 -start_number 0 -start_number_range 1 -i C:/Users/tisgot23adioka/OneDrive - Thorengruppen/Kurser/Programering 1/Runner Game/frame%04d.png -i C:/Users/tisgot23adioka/OneDrive - Thorengruppen/Kurser/Programering 1/Runner Game/KritaTempPalettegen_%06d.png -lavfi [0:v][1:v]paletteuse=dither=sierra2_4a:diff_mode=none -f gif -loop 0 -gifflags +transdiff C:/Users/tisgot23adioka/OneDrive - Thorengruppen/Kurser/Programering 1/Runner Game/document_0(1).gif
=====================================================
Input #0, image2, from 'C:/Users/tisgot23adioka/OneDrive - Thorengruppen/Kurser/Programering 1/Runner Game/frame%04d.png':
  Duration: 00:00:00.36, start: 0.000000, bitrate: N/A
  Stream #0:0: Video: png, rgba(pc), 1920x1080 [SAR 11813:11813 DAR 16:9], 25 fps, 25 tbr, 25 tbn, 25 tbc
Input #1, image2, from 'C:/Users/tisgot23adioka/OneDrive - Thorengruppen/Kurser/Programering 1/Runner Game/KritaTempPalettegen_%06d.png':
  Duration: 00:00:00.04, start: 0.000000, bitrate: N/A
  Stream #1:0: Video: png, rgba(pc), 16x16 [SAR 1:1 DAR 1:1], 25 fps, 25 tbr, 25 tbn, 25 tbc
Stream mapping:
  Stream #0:0 (png) -> paletteuse:default
  Stream #1:0 (png) -> paletteuse:palette
  paletteuse -> Stream #0:0 (gif)
Press [q] to stop, [?] for help
[image2 @ 000001d6d4f99300] Thread message queue blocking; consider raising the thread_queue_size option (current value: 8)
Output #0, gif, to 'C:/Users/tisgot23adioka/OneDrive - Thorengruppen/Kurser/Programering 1/Runner Game/document_0(1).gif':
  Metadata:
    encoder         : Lavf58.76.100
  Stream #0:0: Video: gif, pal8(pc, gbr/unknown/unknown, progressive), 1920x1080 [SAR 1:1 DAR 16:9], q=2-31, 200 kb/s, 50 fps, 100 tbn (default)
    Metadata:
      encoder         : Lavc58.134.100 gif
frame=    1 fps=0.0 q=-0.0 size=       0kB time=00:00:00.01 bitrate=   0.0kbits/s speed=0.106x    frame=    5 fps=0.0 q=-0.0 size=      39kB time=00:00:00.09 bitrate=3573.7kbits/s speed=0.134x    frame=    9 fps=7.4 q=-0.0 size=      81kB time=00:00:00.17 bitrate=3893.6kbits/s speed=0.139x    frame=    9 fps=7.4 q=-0.0 Lsize=      89kB time=00:00:00.17 bitrate=4302.4kbits/s speed=0.139x    
video:89kB audio:0kB subtitle:0kB other streams:0kB global headers:0kB muxing overhead: 0.021881%
